<svg width="965" height="275" viewBox="0 0 965 275" fill="none" xmlns="http://www.w3.org/2000/svg">
<rect x="182.796" y="7.52686" width="8.60215" height="182.796" fill="white"/>
<rect x="212.903" y="37.6344" width="8.60215" height="182.796" fill="white"/>
<rect x="140.86" y="184.946" width="8.60215" height="207.527" transform="rotate(-90 140.86 184.946)" fill="white"/>
<rect x="140.86" y="203.226" width="8.60215" height="124.731" transform="rotate(-90 140.86 203.226)" fill="white"/>
<path d="M258.602 73.1183L120.968 0V9.13979L255.376 80.6452L258.602 73.1183Z" fill="white"/>
<path d="M330.645 133.871L120.968 21.5054V30.6452L327.419 140.323L330.645 133.871Z" fill="white"/>
<rect x="26.8818" y="62.3656" width="26.8817" height="140.86" fill="#024E5B"/>
<rect x="104.301" y="62.3656" width="36.5591" height="140.86" fill="#024E5B"/>
<rect x="140.86" y="176.344" width="26.8817" height="113.978" transform="rotate(90 140.86 176.344)" fill="#024E5B"/>
<path d="M120.968 30.5674V0L0 66.129V97.3118L120.968 30.5674Z" fill="#024E5B"/>
<path d="M421.886 99.0703L415.433 50.7266H415.214L409.308 99.0703H421.886ZM391.699 128L405.425 31.75H424.784L439.386 128H425.714L423.417 110.828H407.886L405.808 128H391.699ZM474.845 128.984C466.642 128.984 461.082 126.56 458.166 121.711C455.286 116.862 453.845 109.844 453.845 100.656V74.0781C453.845 62.1562 455.924 54.1172 460.08 49.9609C463.398 46.6432 468.411 44.9844 475.119 44.9844C481.827 44.9844 486.676 47.026 489.666 51.1094C492.655 55.1562 494.15 61.0078 494.15 68.6641V77.6875H480.15V68.1719C480.15 63.1771 479.694 60.0417 478.783 58.7656C477.908 57.4896 476.413 56.8516 474.299 56.8516C472.184 56.8516 470.671 57.7995 469.759 59.6953C468.884 61.5911 468.447 64.4896 468.447 68.3906V105.359C468.447 109.406 468.848 112.378 469.65 114.273C470.489 116.169 472.093 117.117 474.463 117.117C477.707 117.081 479.549 114.802 479.986 110.281C480.095 109.224 480.15 107.984 480.15 106.562C480.15 106.198 480.15 105.815 480.15 105.414V95.6797H494.15V103.992C494.15 112.013 492.655 118.193 489.666 122.531C486.676 126.833 481.736 128.984 474.845 128.984ZM531.414 128.984C522.19 128.984 516.248 125.466 513.586 118.43C511.909 113.945 511.07 108.039 511.07 100.711V70.1406C511.07 53.3698 518.052 44.9844 532.016 44.9844C539.453 44.9844 544.594 47.1901 547.438 51.6016C550.318 56.013 551.758 62.2839 551.758 70.4141V87.9688H525.672V104.102C525.672 109.789 526.164 113.417 527.149 114.984C528.133 116.516 529.609 117.281 531.578 117.281C533.547 117.281 534.823 116.826 535.406 115.914C536.391 114.31 536.956 112.669 537.102 110.992C537.248 109.315 537.32 107.018 537.32 104.102V96.8828H551.649V101.258C551.649 108.695 551.065 114.036 549.899 117.281C548.732 120.526 547.383 122.878 545.852 124.336C542.643 127.435 537.831 128.984 531.414 128.984ZM525.617 79.4922H537.32V68.9922C537.32 64.5078 536.956 61.2995 536.227 59.3672C535.534 57.3984 534.094 56.4141 531.906 56.4141C531.87 56.4141 531.852 56.4141 531.852 56.4141C528.06 56.4141 526.018 59.3125 525.727 65.1094C525.654 66.2031 525.617 67.625 525.617 69.375V79.4922ZM636.622 101.75C636.622 111.047 634.963 117.938 631.645 122.422C628.328 126.87 623.114 129.094 616.005 129.094C608.895 129.094 603.572 126.724 600.036 121.984C596.536 117.208 594.786 110.354 594.786 101.422V59.4766C594.786 45.1484 598.541 36.1979 606.052 32.625C608.822 31.3125 612.177 30.6562 616.114 30.6562C629.64 30.6562 636.403 39.1875 636.403 56.25V69.4844H622.239V57.1797C622.239 52.2214 621.82 48.6849 620.981 46.5703C620.143 44.4193 618.502 43.3438 616.059 43.3438C613.617 43.3438 611.921 44.474 610.974 46.7344C610.026 48.9948 609.552 52.4583 609.552 57.125V102.078C609.552 107.255 610.007 110.956 610.919 113.18C611.83 115.404 613.489 116.516 615.895 116.516C618.302 116.516 619.961 115.385 620.872 113.125C621.783 110.865 622.239 107.128 622.239 101.914V88.1328H636.622V101.75ZM668.253 129.039C658.519 129.039 653.652 122.495 653.652 109.406V45.9688H668.199V107.164C668.199 110.555 668.618 113.07 669.456 114.711C670.295 116.315 671.863 117.117 674.159 117.117C678.571 117.117 680.777 113.836 680.777 107.273L680.831 45.9688H695.269V128H680.777V119.469C678.48 125.849 674.305 129.039 668.253 129.039ZM712.627 65.1094C712.627 51.6927 719.08 44.9844 731.986 44.9844C738.403 44.9844 743.088 46.8255 746.041 50.5078C749.03 54.1536 750.525 60.2422 750.525 68.7734V73.2578H737.564V67.8438C737.564 64.125 737.145 61.3724 736.306 59.5859C735.468 57.763 734.064 56.8516 732.095 56.8516C730.163 56.8516 728.723 57.4167 727.775 58.5469C726.864 59.6771 726.408 61.6094 726.408 64.3438C726.408 68.6823 728.34 72.7109 732.205 76.4297L739.97 83.4844C747.955 90.9219 751.947 99.1068 751.947 108.039C751.947 115.039 750.361 120.289 747.189 123.789C744.017 127.289 739.095 129.039 732.424 129.039C725.752 129.039 720.83 127.143 717.658 123.352C714.486 119.523 712.9 113.398 712.9 104.977V99.6719H726.517V106.289C726.517 113.581 728.377 117.227 732.095 117.227C734.064 117.227 735.486 116.589 736.361 115.312C737.236 114 737.674 111.794 737.674 108.695C737.674 103.227 735.158 98.1589 730.127 93.4922C729.981 93.3464 728.796 92.2891 726.572 90.3203C724.384 88.3516 723.108 87.1849 722.744 86.8203C715.999 80.6589 712.627 73.4219 712.627 65.1094ZM783.359 128.547C778.255 128.547 774.828 127.581 773.078 125.648C771.328 123.68 770.453 120.289 770.453 115.477V58.1641H763.781V47.6641H770.453V31.6953H784.945V47.6641H792.93V58.1641H784.945V112.961C784.945 114.893 785.438 116.133 786.422 116.68C787.443 117.227 789.703 117.5 793.203 117.5V128.547H783.359ZM828.717 117.281C830.978 117.281 832.509 116.297 833.311 114.328C834.15 112.323 834.569 109.352 834.569 105.414V68.7188C834.569 64.7083 834.15 61.7005 833.311 59.6953C832.472 57.6901 830.923 56.6875 828.663 56.6875C826.402 56.6875 824.853 57.6901 824.014 59.6953C823.176 61.6641 822.756 64.6719 822.756 68.7188V105.414C822.756 111.43 823.741 115.112 825.709 116.461C826.512 117.008 827.514 117.281 828.717 117.281ZM828.717 128.984C820.988 128.984 815.629 126.669 812.639 122.039C809.65 117.409 808.155 110.719 808.155 101.969V71.2891C808.155 53.7526 814.991 44.9844 828.663 44.9844C842.334 44.9844 849.17 53.7526 849.17 71.2891V101.969C849.17 115.641 845.652 124.044 838.616 127.18C835.918 128.383 832.618 128.984 828.717 128.984ZM921.927 128V65C921.927 59.5677 920.086 56.8516 916.403 56.8516C914.179 56.8516 912.466 57.6172 911.263 59.1484C910.059 60.6797 909.458 62.8854 909.458 65.7656V128H894.966V64.8906C894.966 59.5312 893.179 56.8516 889.606 56.8516C887.237 56.8516 885.45 57.763 884.247 59.5859C883.08 61.3724 882.497 63.6875 882.497 66.5312V128H868.005V45.9688H882.497V54.8828C883.336 51.8203 884.849 49.4141 887.036 47.6641C889.224 45.8776 892.086 44.9844 895.622 44.9844C901.674 44.9844 905.721 47.737 907.763 53.2422C910.716 47.737 915.364 44.9844 921.708 44.9844C926.849 44.9844 930.567 46.6979 932.864 50.125C935.197 53.5521 936.364 58.5651 936.364 65.1641V128H921.927Z" fill="white"/>
<path d="M412.427 181.645C412.427 177.855 412.241 175.077 411.871 173.31C411.529 171.544 410.931 170.347 410.076 169.72C409.249 169.093 407.924 168.779 406.1 168.779H398.962V197.333H405.63C407.796 197.333 409.263 196.962 410.033 196.221C410.831 195.481 411.429 194.255 411.828 192.545C412.227 190.807 412.427 187.359 412.427 182.201V181.645ZM392.636 163.479H405.416C410.574 163.479 414.022 164.562 415.761 166.728C417.071 168.352 417.898 170.347 418.24 172.712C418.61 175.049 418.796 178.454 418.796 182.928C418.796 187.402 418.268 191.064 417.214 193.913C416.188 196.734 414.407 198.487 411.871 199.171C412.868 199.342 413.709 199.655 414.393 200.111C415.077 200.539 415.689 201.28 416.231 202.334C417.912 205.611 418.753 213.675 418.753 226.527C418.753 231.856 418.796 234.934 418.881 235.76C418.995 236.558 419.266 237.541 419.693 238.71H413.367C412.911 237.855 412.64 236.245 412.555 233.879C412.469 231.486 412.427 227.681 412.427 222.467V214.174C412.427 208.931 412.099 205.597 411.443 204.172C410.817 202.747 408.922 202.035 405.758 202.035L399.005 201.607V238.71H392.636V163.479ZM466.288 201.223V192.631C466.288 187.815 466.103 184.666 465.733 183.184C465.106 180.677 463.538 179.423 461.031 179.423C457.668 179.423 455.673 181.631 455.046 186.048C454.79 187.843 454.662 190.038 454.662 192.631C454.662 192.887 454.662 193.144 454.662 193.4V201.223H466.288ZM448.293 195.367C448.293 187.9 448.977 182.771 450.344 179.978C451.769 177.186 453.679 175.376 456.072 174.55C457.497 174.065 459.136 173.823 460.988 173.823C462.869 173.823 464.493 174.051 465.861 174.507C467.941 175.191 469.694 177.058 471.118 180.107C472.144 182.244 472.657 187.502 472.657 195.879V206.566H454.662V219.475C454.662 226.086 455.146 230.146 456.115 231.657C457.112 233.139 458.566 233.879 460.475 233.879C462.413 233.879 463.766 233.281 464.536 232.084C465.334 230.887 465.818 229.349 465.989 227.468C466.189 225.558 466.288 222.98 466.288 219.731V214.944H472.486V217.038C472.486 223.364 472.272 227.696 471.845 230.032C470.762 236.33 467.243 239.479 461.287 239.479C456.101 239.479 452.653 237.883 450.943 234.692C449.775 232.583 449.034 230.175 448.72 227.468C448.435 224.761 448.293 221.227 448.293 216.867V195.367ZM509.378 180.876C509.948 178.967 511.202 177.314 513.14 175.918C515.106 174.493 517.414 173.78 520.064 173.78C522.715 173.78 524.895 174.878 526.604 177.072C528.314 179.266 529.169 182.557 529.169 186.946V238.71H522.8V186.433C522.8 183.954 522.23 182.173 521.09 181.09C519.979 179.978 518.483 179.423 516.602 179.423C511.786 179.423 509.378 181.802 509.378 186.561V238.71H503.009V174.593H509.378V180.876ZM578.243 193.699C578.243 186.347 577.274 181.916 575.337 180.406C574.482 179.75 573.456 179.423 572.259 179.423C569.01 179.423 567.073 181.232 566.446 184.851C566.018 187.103 565.805 190.052 565.805 193.699V218.919C565.805 225.217 566.332 229.292 567.386 231.144C568.469 232.968 570.179 233.879 572.516 233.879C574.852 233.879 576.391 232.583 577.132 229.99C577.873 227.368 578.243 223.678 578.243 218.919V193.699ZM559.436 195.196C559.436 187.786 560.134 182.686 561.53 179.893C562.926 177.1 564.821 175.305 567.215 174.507C568.64 174.051 570.236 173.823 572.003 173.823C579.212 173.823 583.259 177.741 584.142 185.578C584.456 188.257 584.612 191.463 584.612 195.196V216.696C584.612 221.74 584.498 225.003 584.27 226.485C584.071 227.966 583.871 229.249 583.672 230.332C582.532 236.43 578.571 239.479 571.789 239.479C569.025 239.479 566.816 238.909 565.163 237.769C562.029 235.603 560.219 231.628 559.735 225.843C559.535 223.279 559.436 220.23 559.436 216.696V195.196ZM629.754 174.593H635.482L626.163 238.71H619.795L610.433 174.593H616.161L621.205 212.037L622.915 227.639H623.342L625.052 211.994L629.754 174.593ZM662.799 193.785C662.799 189.14 662.927 186.148 663.184 184.809C663.44 183.441 663.711 182.258 663.996 181.261C664.309 180.235 664.666 179.394 665.064 178.739C665.492 178.083 666.005 177.414 666.603 176.73C667.23 176.046 667.943 175.519 668.741 175.148C669.538 174.749 670.465 174.436 671.519 174.208C672.602 173.951 673.799 173.823 675.109 173.823C676.42 173.823 677.603 173.937 678.657 174.165C679.712 174.393 680.638 174.65 681.436 174.935C682.234 175.22 682.917 175.732 683.487 176.473C684.086 177.186 684.585 177.813 684.983 178.354C686.351 180.206 687.035 185.464 687.035 194.127V238.71H680.666V233.922C680.296 235.062 679.37 236.23 677.888 237.427C676.435 238.596 674.554 239.18 672.246 239.18C668.883 239.18 666.333 237.769 664.594 234.948C662.885 232.098 662.03 227.981 662.03 222.595V214.388C662.03 211.453 662.728 209.173 664.124 207.549C665.549 205.924 666.774 204.785 667.8 204.129C670.507 202.419 673.229 200.995 675.964 199.855C678.7 198.686 680.267 198.017 680.666 197.846V190.665C680.666 186.533 680.51 184.096 680.196 183.355C679.883 182.614 679.626 182.016 679.427 181.56C678.8 180.135 677.289 179.423 674.896 179.423C672.502 179.423 670.949 180.434 670.237 182.458C669.553 184.452 669.211 188.271 669.211 193.913V195.495H662.799V193.785ZM680.666 202.932C675.964 205.07 673.243 206.409 672.502 206.95C671.79 207.492 671.148 208.047 670.579 208.617C669.097 210.099 668.356 212.878 668.356 216.953V222.039C668.356 226.456 668.698 229.534 669.382 231.272C670.066 233.01 671.291 233.879 673.058 233.879C674.825 233.879 676.392 233.438 677.76 232.554C679.127 231.671 680.096 230.716 680.666 229.69V202.932ZM719.952 163.479H726.364V174.336H733.93V179.295H726.364V229.776C726.364 231.058 726.52 231.942 726.834 232.426C727.147 232.911 727.732 233.238 728.586 233.409C729.441 233.58 731.208 233.666 733.887 233.666V239.094H729.441C725.395 239.094 722.787 238.382 721.619 236.957C720.935 236.131 720.479 235.162 720.251 234.05C720.052 232.911 719.952 231.372 719.952 229.434V179.295H713.54V174.336H719.952V163.479ZM761.802 174.593H768.214V238.71H761.802V174.593ZM761.802 162.539H768.171V168.694H761.802V162.539ZM817.801 193.699C817.801 186.347 816.832 181.916 814.895 180.406C814.04 179.75 813.014 179.423 811.817 179.423C808.569 179.423 806.631 181.232 806.004 184.851C805.576 187.103 805.363 190.052 805.363 193.699V218.919C805.363 225.217 805.89 229.292 806.944 231.144C808.027 232.968 809.737 233.879 812.074 233.879C814.41 233.879 815.949 232.583 816.69 229.99C817.431 227.368 817.801 223.678 817.801 218.919V193.699ZM798.994 195.196C798.994 187.786 799.692 182.686 801.088 179.893C802.485 177.1 804.38 175.305 806.773 174.507C808.198 174.051 809.794 173.823 811.561 173.823C818.77 173.823 822.817 177.741 823.7 185.578C824.014 188.257 824.17 191.463 824.17 195.196V216.696C824.17 221.74 824.056 225.003 823.828 226.485C823.629 227.966 823.429 229.249 823.23 230.332C822.09 236.43 818.129 239.479 811.347 239.479C808.583 239.479 806.374 238.909 804.721 237.769C801.587 235.603 799.777 231.628 799.293 225.843C799.093 223.279 798.994 220.23 798.994 216.696V195.196ZM861.276 180.876C861.846 178.967 863.1 177.314 865.038 175.918C867.004 174.493 869.312 173.78 871.962 173.78C874.612 173.78 876.792 174.878 878.502 177.072C880.212 179.266 881.067 182.557 881.067 186.946V238.71H874.698V186.433C874.698 183.954 874.128 182.173 872.988 181.09C871.877 179.978 870.381 179.423 868.5 179.423C863.684 179.423 861.276 181.802 861.276 186.561V238.71H854.907V174.593H861.276V180.876ZM910.992 188.271C910.992 183.541 912.117 179.95 914.368 177.499C916.648 175.049 919.783 173.823 923.772 173.823C927.762 173.823 930.683 175.405 932.535 178.568C934.387 181.731 935.313 187.003 935.313 194.383V197.803H928.688V193.229C928.688 188.698 928.289 185.307 927.491 183.056C926.722 180.805 925.354 179.679 923.387 179.679C921.45 179.679 919.968 180.335 918.942 181.645C917.945 182.928 917.446 185.165 917.446 188.356C917.446 188.442 917.446 188.527 917.446 188.613C917.446 193.6 919.768 198.344 924.413 202.847L927.705 206.053C933.375 211.723 936.211 217.978 936.211 224.818C936.211 229.377 935.228 232.982 933.261 235.632C931.295 238.254 928.203 239.564 923.986 239.564C919.768 239.564 916.605 238.111 914.497 235.205C912.416 232.298 911.376 227.667 911.376 221.313V215.798H917.916V220.201C917.916 229.235 919.882 233.751 923.815 233.751C925.924 233.751 927.42 233.067 928.303 231.699C929.187 230.332 929.628 227.909 929.628 224.433C929.628 219.275 927.405 214.431 922.96 209.9L919.583 206.48C913.855 200.667 910.992 194.597 910.992 188.271Z" fill="white"/>
</svg>
